<svg id="Capa_1" enable-background="new 0 0 512 512" height="512" viewBox="0 0 512 512" width="512" xmlns="http://www.w3.org/2000/svg"><g><path d="m277.036 31.367c-4.141 0-7.498 3.357-7.498 7.498v15.94h-22.577v-15.94c0-4.142-3.357-7.498-7.498-7.498s-7.498 3.357-7.498 7.498v51.359c0 4.142 3.357 7.498 7.498 7.498s7.498-3.357 7.498-7.498v-20.422h22.577v20.422c0 4.142 3.357 7.498 7.498 7.498s7.498-3.357 7.498-7.498v-51.358c.001-4.142-3.357-7.499-7.498-7.499z"/><g><path d="m487.323 462.603c3.453-4.105 5.539-9.397 5.539-15.169 0-10.731-7.197-19.812-17.016-22.664-2.852-9.819-11.933-17.016-22.664-17.016-1.196 0-2.383.091-3.553.268-4.672-10.865-15.429-18.285-27.879-18.285-.927 0-1.843.053-2.753.134v-135.507c0-4.142-3.357-7.498-7.498-7.498s-7.499 3.356-7.499 7.498v201.665h-85.959v-89.591h14.19c4.141 0 7.498-3.357 7.498-7.498 0-4.142-3.357-7.498-7.498-7.498h-21.688-104.587-21.688c-4.141 0-7.498 3.357-7.498 7.498 0 4.142 3.357 7.498 7.498 7.498h14.19v89.591h-85.959v-107.413c0-4.142-3.357-7.498-7.498-7.498s-7.498 3.357-7.498 7.498v41.255c-.91-.081-1.826-.134-2.753-.134-12.451 0-23.208 7.42-27.879 18.285-1.17-.178-2.357-.268-3.553-.268-10.731 0-19.812 7.197-22.664 17.016-9.819 2.853-17.016 11.934-17.016 22.664 0 4.749 1.415 9.171 3.838 12.877-6.14 4.297-10.166 11.416-10.166 19.462v17.731c0 7.993 6.503 14.496 14.496 14.496h106.439c4.141 0 7.498-3.357 7.498-7.498s-3.357-7.498-7.498-7.498h-105.94v-17.231c0-4.824 3.924-8.748 8.748-8.748h6.053c.039 0 .077.003.115.003h57.776c.02 0 .038-.003.058-.003h100.901 104.588 100.901c.02 0 .038.003.058.003h57.776c.039 0 .077-.003.115-.003h1.554c4.824 0 8.748 3.924 8.748 8.748v17.231h-308.774c-4.141 0-7.498 3.357-7.498 7.498s3.357 7.498 7.498 7.498h309.273c7.993 0 14.496-6.503 14.496-14.496v-17.731c.001-6.748-2.833-12.843-7.368-17.17zm-440.102-23.768c4.141 0 7.498-3.357 7.498-7.498 0-4.735 3.857-8.588 8.598-8.588 1.667 0 3.222.458 4.623 1.362 2.195 1.415 4.969 1.588 7.321.453 2.353-1.134 3.946-3.412 4.205-6.011.784-7.879 7.355-13.82 15.283-13.82.938 0 1.853.106 2.753.268v51.027h-50.339c-4.708-.031-8.53-3.873-8.53-8.595 0-4.74 3.853-8.598 8.588-8.598zm166.233-72.398h37.298v89.591h-37.298zm52.294 89.591v-89.591h37.298v89.591zm153.249-51.027c.9-.162 1.815-.268 2.753-.268 7.928 0 14.499 5.941 15.283 13.82.259 2.599 1.852 4.877 4.205 6.011 2.352 1.134 5.127.962 7.321-.453 1.401-.904 2.956-1.362 4.623-1.362 4.741 0 8.598 3.853 8.598 8.588 0 4.142 3.357 7.498 7.498 7.498 4.735 0 8.588 3.857 8.588 8.599 0 4.721-3.822 8.563-8.53 8.595h-50.339z"/><path d="m87.121 95.589h10.377v220.347c0 4.142 3.357 7.498 7.498 7.498s7.498-3.357 7.498-7.498v-220.347h89.248v21.521c0 4.142 3.357 7.498 7.498 7.498h98.016c4.141 0 7.498-3.357 7.498-7.498v-21.521h89.248v126.099c0 4.142 3.357 7.498 7.498 7.498s7.5-3.356 7.5-7.498v-126.099h10.377c7.993 0 14.496-6.503 14.496-14.496v-26.984c0-7.993-6.503-14.496-14.496-14.496h-114.621v-32.115c0-4.142-3.357-7.498-7.498-7.498h-98.016c-4.141 0-7.498 3.357-7.498 7.498v32.114h-114.623c-7.993 0-14.496 6.503-14.496 14.496v26.984c0 7.994 6.503 14.497 14.496 14.497zm341.757-40.98v25.984h-17.376-96.746v-25.984zm-212.138-39.613h83.02v94.616h-83.02zm-129.119 39.613h114.122v25.984h-96.746-17.376z"/></g><g><path d="m375.783 145.132h-33.992c-4.141 0-7.498 3.357-7.498 7.498v68.483c0 4.142 3.357 7.498 7.498 7.498h33.992c4.141 0 7.498-3.357 7.498-7.498v-68.483c0-4.142-3.357-7.498-7.498-7.498zm-7.498 14.996v22.735h-18.995v-22.735zm-18.995 53.487v-15.756h18.995v15.756z"/><path d="m308.758 145.132h-33.992c-4.141 0-7.498 3.357-7.498 7.498v68.483c0 4.142 3.357 7.498 7.498 7.498h33.992c4.141 0 7.498-3.357 7.498-7.498v-68.483c0-4.142-3.357-7.498-7.498-7.498zm-7.498 14.996v22.735h-18.995v-22.735zm-18.995 53.487v-15.756h18.995v15.756z"/><path d="m241.732 145.132h-33.992c-4.141 0-7.498 3.357-7.498 7.498v68.483c0 4.142 3.357 7.498 7.498 7.498h33.992c4.141 0 7.498-3.357 7.498-7.498v-68.483c.001-4.142-3.356-7.498-7.498-7.498zm-7.498 14.996v22.735h-18.995v-22.735zm-18.995 53.487v-15.756h18.995v15.756z"/><path d="m174.707 145.132h-33.992c-4.141 0-7.498 3.357-7.498 7.498v68.483c0 4.142 3.357 7.498 7.498 7.498h33.992c4.141 0 7.498-3.357 7.498-7.498v-68.483c.001-4.142-3.357-7.498-7.498-7.498zm-7.498 14.996v22.735h-18.995v-22.735zm-18.995 53.487v-15.756h18.995v15.756z"/></g><g><path d="m375.783 246.773h-33.992c-4.141 0-7.498 3.357-7.498 7.498v68.483c0 4.142 3.357 7.498 7.498 7.498h33.992c4.141 0 7.498-3.357 7.498-7.498v-68.483c0-4.142-3.357-7.498-7.498-7.498zm-7.498 14.996v22.736h-18.995v-22.736zm-18.995 53.487v-15.755h18.995v15.755z"/><path d="m308.758 246.773h-33.992c-4.141 0-7.498 3.357-7.498 7.498v68.483c0 4.142 3.357 7.498 7.498 7.498h33.992c4.141 0 7.498-3.357 7.498-7.498v-68.483c0-4.142-3.357-7.498-7.498-7.498zm-7.498 14.996v22.736h-18.995v-22.736zm-18.995 53.487v-15.755h18.995v15.755z"/><path d="m241.732 246.773h-33.992c-4.141 0-7.498 3.357-7.498 7.498v68.483c0 4.142 3.357 7.498 7.498 7.498h33.992c4.141 0 7.498-3.357 7.498-7.498v-68.483c.001-4.142-3.356-7.498-7.498-7.498zm-7.498 14.996v22.736h-18.995v-22.736zm-18.995 53.487v-15.755h18.995v15.755z"/><path d="m174.707 246.773h-33.992c-4.141 0-7.498 3.357-7.498 7.498v68.483c0 4.142 3.357 7.498 7.498 7.498h33.992c4.141 0 7.498-3.357 7.498-7.498v-68.483c.001-4.142-3.357-7.498-7.498-7.498zm-7.498 14.996v22.736h-18.995v-22.736zm-18.995 53.487v-15.755h18.995v15.755z"/></g></g></svg>