<svg id="Capa_1" enable-background="new 0 0 512 512" height="512" viewBox="0 0 512 512" width="512" xmlns="http://www.w3.org/2000/svg"><g><path d="m211 125c0 24.813 20.187 45 45 45s45-20.187 45-45-20.187-45-45-45-45 20.187-45 45zm60 0c0 8.271-6.729 15-15 15s-15-6.729-15-15 6.729-15 15-15 15 6.729 15 15z"/><path d="m287.82 328.109-45.962 45.961-17.678-17.677c-5.857-5.858-15.355-5.858-21.213 0s-5.858 15.355 0 21.213l28.284 28.284c2.929 2.929 6.768 4.394 10.606 4.394s7.678-1.464 10.606-4.394l56.568-56.568c5.858-5.858 5.858-15.355 0-21.213-5.856-5.858-15.354-5.858-21.211 0z"/><path d="m485.371 179.287-220-176c-5.479-4.383-13.263-4.383-18.741 0l-45.63 36.504v-24.791c0-8.284-6.716-15-15-15h-60c-8.284 0-15 6.716-15 15v96.791l-84.371 67.496c-6.469 5.175-7.518 14.614-2.342 21.083 5.175 6.468 14.614 7.517 21.083 2.342l30.63-24.503v232.791c0 8.284 6.716 15 15 15h63.479c4.607 10.269 10.364 20.087 17.229 29.313 20.089 27 47.747 46.384 79.982 56.054 1.406.422 2.858.633 4.31.633s2.904-.211 4.31-.633c32.235-9.67 59.893-29.054 79.982-56.054 6.864-9.226 12.621-19.044 17.229-29.313h63.479c8.284 0 15-6.716 15-15v-232.791l30.629 24.503c2.766 2.213 6.075 3.288 9.361 3.288 4.4 0 8.76-1.927 11.722-5.63 5.176-6.469 4.127-15.908-2.341-21.083zm-344.371-149.287h30v33.791l-30 24zm200 332.597c0 54.256-33.971 101.385-85 118.66-51.029-17.275-85-64.404-85-118.66v-71.995c22.701-4.285 42.437-18.2 54.125-38.603h61.75c11.688 20.402 31.424 34.318 54.125 38.603zm65 33.403h-38.591c2.376-10.864 3.591-22.042 3.591-33.403v-85.597c0-8.284-6.716-15-15-15-18.955 0-35.996-10.532-44.472-27.484l-2.111-4.223c-2.541-5.083-7.735-8.293-13.417-8.293h-80c-5.682 0-10.876 3.21-13.417 8.292l-2.111 4.222c-8.476 16.954-25.517 27.486-44.472 27.486-8.284 0-15 6.716-15 15v85.597c0 11.361 1.215 22.539 3.591 33.403h-38.591v-241.791l150-120 150 120z"/></g></svg>