<svg id="Layer_1" enable-background="new 0 0 512 512" height="512" viewBox="0 0 512 512" width="512" xmlns="http://www.w3.org/2000/svg"><g><path d="m166 228.103h92c4.143 0 7.5-3.358 7.5-7.5v-97.363c0-4.142-3.357-7.5-7.5-7.5h-92c-4.143 0-7.5 3.358-7.5 7.5v97.363c0 4.142 3.357 7.5 7.5 7.5zm7.5-97.363h77v82.363h-77z"/><path d="m293 148.876c9.652 0 9.668-15 0-15-9.652 0-9.668 15 0 15z"/><path d="m320 148.876c9.652 0 9.668-15 0-15-9.652 0-9.668 15 0 15z"/><path d="m347 148.876c9.652 0 9.668-15 0-15-9.652 0-9.668 15 0 15z"/><path d="m293 183.869c9.652 0 9.668-15 0-15-9.652 0-9.668 15 0 15z"/><path d="m320 183.869c9.652 0 9.668-15 0-15-9.652 0-9.668 15 0 15z"/><path d="m347 183.869c9.652 0 9.668-15 0-15-9.652 0-9.668 15 0 15z"/><path d="m320 223.236h27c4.143 0 7.5-3.358 7.5-7.5s-3.357-7.5-7.5-7.5h-27c-4.143 0-7.5 3.358-7.5 7.5s3.357 7.5 7.5 7.5z"/><path d="m472.364 468.127c21.855 0 39.636-17.781 39.636-39.636v-74.104c0-17.978-2.842-35.755-8.447-52.84l-43.497-125.395c-3.668-9.963-6.084-19.232-14.617-26.385l-57.321-56.459v-14.465h9.882c4.143 0 7.5-3.358 7.5-7.5v-63.843c0-4.142-3.357-7.5-7.5-7.5h-42.938c-9.697 0-9.697 15 0 15h35.438v48.843h-269v-48.843h193.582c9.697 0 9.697-15 0-15h-201.082c-4.143 0-7.5 3.358-7.5 7.5v63.843c0 4.142 3.357 7.5 7.5 7.5h9.883v14.466l-57.345 56.483c-8.518 7.142-10.93 16.413-14.593 26.361l-43.498 125.394c-5.605 17.084-8.447 34.862-8.447 52.84v74.104c0 51.001 79.272 51.096 79.272 0v-77.728c0-13.584 11.052-24.636 24.637-24.636h19.974v170.873h-116.383c-9.697 0-9.697 15 0 15h497c9.697 0 9.697-15 0-15h-116.383v-170.873h19.974c13.585 0 24.637 11.052 24.637 24.636v77.728c0 21.855 17.781 39.636 39.636 39.636zm-29.299-294.706-24.232 5.82v-18.63c0-.585.257-1.136.705-1.513l6.141-5.155c.895-.65 1.777-.617 2.646.099l11.534 11.231c.209.204.373.457.475.732zm5.219 14.173 9.985 27.117-26.765-7.4c-.048-.013-.095-.025-.143-.038-6.238-1.594-10.871-6.588-12.157-12.695zm-31.909-45.399c-3.21 2.56-7.172 5.386-9.524 8.793-1.631-.518-3.366-.802-5.166-.802h-13.567v-35.824zm-28.258 22.991h13.567c1.158 0 2.1.942 2.1 2.099v24.415c0 1.158-.941 2.1-2.1 2.1h-13.567zm-15-86.343v186.158h-234.234v-186.158zm-249.234 114.957h-13.567c-1.158 0-2.1-.942-2.1-2.1v-24.415c0-1.157.941-2.099 2.1-2.099h13.567zm0-43.614h-13.567c-1.801 0-3.535.284-5.166.802-2.401-3.477-6.249-6.175-9.524-8.793l28.257-27.832zm-60.167 37.408 29.08 6.984c-1.325 6.292-6.139 11.098-12.3 12.732l-26.765 7.4zm5.219-14.173 2.732-7.418c.101-.274.265-.526.475-.731l11.533-11.23c.73-.71 1.866-.753 2.648-.098l6.139 5.155c.448.376.705.927.705 1.512v18.63zm34.974 137.706c-21.855 0-39.637 17.781-39.637 39.636v77.728c0 31.698-49.272 31.749-49.272 0v-74.104c0-16.387 2.591-32.591 7.699-48.163l24.651-74.185 37.077-10.252c8.264-2.133 15.051-7.404 19.221-14.341 2.05.871 4.303 1.354 6.667 1.354h13.567v102.327zm34.974 185.873v-216.999h234.234v216.999zm269.208-185.873h-19.974v-102.327h13.567c2.364 0 4.618-.483 6.667-1.354 4.17 6.937 10.957 12.208 19.221 14.341l37.077 10.252 24.651 74.185c5.109 15.572 7.7 31.776 7.7 48.163v74.104c0 31.698-49.272 31.749-49.272 0v-77.728c0-21.855-17.782-39.636-39.637-39.636z"/><path d="m256 302.003c-46.095 0-83.596 37.501-83.596 83.596 0 13.708 3.402 27.317 9.839 39.357 4.575 8.55 17.801 1.48 13.229-7.072-5.277-9.872-8.067-21.036-8.067-32.285 0-37.824 30.771-68.596 68.596-68.596s68.596 30.772 68.596 68.596-30.771 68.596-68.596 68.596c-13.561 0-26.678-3.958-37.934-11.447-8.073-5.373-16.382 7.117-8.309 12.488 13.726 9.132 29.716 13.958 46.242 13.958 46.095 0 83.596-37.501 83.596-83.596 0-46.094-37.501-83.595-83.596-83.595z"/><path d="m250.79 436.677c.539.059 1.078.057 1.616-.007 1.851-.159 31.702-3.137 47.396-30.619 15.261-26.722 2.863-54.998 2.328-56.188-1.354-3.011-4.51-4.785-7.793-4.364-1.281.164-30.974 4.249-46.229 29.125-13.969-13.942-32.611-15.811-33.543-15.896-3.288-.305-6.384 1.589-7.626 4.648-.424 1.043-10.22 25.803 3.039 47.97 13.261 22.172 39.693 25.213 40.812 25.331zm9.458-53.151c7.789-13.638 22.054-19.49 30.089-21.799 2.136 7.983 4.358 23.021-3.56 36.885-8.367 14.652-22.223 20.094-29.975 22.056-2.136-7.991-4.466-23.287 3.446-37.142zm-41.063-8.632c6.256 1.754 16.033 5.885 22.404 15.28-2.653 10.59-2.006 20.702-.608 28.357-6.175-2.576-13.469-7.093-18.129-14.884-6.15-10.283-5.118-21.926-3.667-28.753z"/></g></svg>